<?xml version="1.0" standalone="no"?>
<!DOCTYPE svg PUBLIC "-//W3C//DTD SVG 20010904//EN"
 "http://www.w3.org/TR/2001/REC-SVG-20010904/DTD/svg10.dtd">
<svg version="1.0" xmlns="http://www.w3.org/2000/svg"
 width="150.000000pt" height="150.000000pt" viewBox="0 0 150.000000 150.000000"
 preserveAspectRatio="xMidYMid meet">

<g transform="translate(0.000000,150.000000) scale(0.100000,-0.100000)"
fill="#000000" stroke="none">
<path d="M665 1271 c-22 -10 -61 -50 -57 -60 2 -6 -20 -14 -70 -25 -32 -7 -38
-26 -9 -26 11 0 23 -4 26 -10 4 -6 -6 -10 -23 -10 -25 0 -29 -3 -25 -20 3 -10
-2 -26 -11 -35 -23 -24 -29 -58 -21 -123 6 -49 9 -54 19 -38 33 57 66 67 66
21 0 -38 17 -38 30 -2 l11 34 52 -9 c72 -14 252 -4 309 17 146 52 124 163 -52
255 -29 16 -152 40 -195 39 -16 0 -39 -4 -50 -8z m141 -16 c107 -25 171 -81
179 -157 1 -18 6 -45 10 -59 5 -19 2 -28 -9 -32 -12 -5 -16 0 -16 21 0 37 -17
94 -34 117 -13 18 -13 15 -1 -20 8 -22 14 -62 15 -88 0 -40 -3 -48 -17 -45 -9
2 -21 17 -27 35 -6 17 -15 35 -19 40 -5 4 -3 -5 2 -20 18 -48 14 -65 -19 -72
-20 -4 -37 -2 -47 7 -14 11 -16 11 -8 -1 7 -12 -7 -13 -91 -6 -54 5 -127 9
-160 9 l-62 1 15 28 c17 33 68 67 102 67 13 0 22 3 18 6 -17 17 -84 -10 -119
-49 -34 -36 -38 -38 -38 -18 0 12 11 33 25 47 14 14 25 31 25 39 0 26 84 30
146 7 71 -26 69 -18 -3 15 -32 15 -60 30 -63 34 -3 4 -16 9 -30 12 -17 3 -13
5 15 6 22 0 65 -6 95 -14 l55 -14 -25 20 -25 20 25 -5 c21 -5 22 -5 5 3 -11 5
-36 14 -55 19 -34 10 -34 10 -11 18 23 7 24 8 5 15 -18 6 -17 8 6 17 35 15 65
14 136 -3z"/>
<path d="M834 1190 c17 -10 40 -36 53 -57 26 -42 31 -38 8 7 -16 30 -60 70
-79 70 -6 0 2 -9 18 -20z"/>
<path d="M650 1030 c64 -23 75 -24 40 -6 -14 8 -41 16 -60 20 -24 4 -18 0 20
-14z"/>
<path d="M1210 925 c-6 -8 -9 -23 -5 -35 5 -14 2 -20 -9 -20 -9 0 -16 -4 -16
-10 0 -5 -7 -10 -15 -10 -8 0 -15 -4 -15 -10 0 -5 -9 -10 -19 -10 -32 0 -30
-24 6 -64 l35 -38 71 71 70 72 -33 34 c-37 38 -51 42 -70 20z"/>
<path d="M375 920 c-3 -6 1 -7 9 -4 18 7 21 14 7 14 -6 0 -13 -4 -16 -10z"/>
<path d="M297 913 c-3 -5 -2 -15 4 -23 5 -8 9 -19 9 -25 0 -5 -4 -4 -9 4 -5 7
-11 9 -14 4 -4 -6 9 -25 28 -43 28 -27 35 -42 36 -74 1 -36 2 -37 8 -13 l6 28
33 -42 c41 -55 41 -44 0 18 -21 31 -32 58 -30 78 1 16 -1 24 -4 18 -12 -27
-34 -13 -34 21 0 32 -23 66 -33 49z"/>
<path d="M370 869 c0 -5 5 -7 10 -4 6 3 10 8 10 11 0 2 -4 4 -10 4 -5 0 -10
-5 -10 -11z"/>
<path d="M860 860 c-24 -24 -25 -43 -4 -64 22 -22 50 -20 68 5 16 23 12 47
-12 67 -21 16 -29 15 -52 -8z m40 -30 c0 -32 -14 -40 -24 -15 -6 18 2 45 15
45 5 0 9 -13 9 -30z"/>
<path d="M417 863 c-13 -12 -7 -60 8 -73 16 -13 69 -5 60 9 -3 5 -14 7 -25 4
-16 -4 -20 0 -20 22 0 24 3 26 25 21 18 -5 25 -2 25 9 0 10 -10 15 -33 15 -19
0 -37 -3 -40 -7z"/>
<path d="M514 854 c3 -9 6 -26 6 -40 0 -17 7 -25 26 -30 31 -8 40 1 47 49 5
30 3 37 -11 37 -12 0 -17 -8 -17 -27 0 -16 -4 -28 -10 -28 -5 0 -10 12 -10 28
0 20 -5 27 -18 27 -13 0 -17 -5 -13 -16z"/>
<path d="M620 854 c0 -14 2 -15 17 -3 15 13 16 10 11 -28 -5 -38 -4 -43 13
-43 17 0 19 5 14 34 -4 20 -2 36 4 40 6 4 11 2 11 -4 0 -6 5 -8 10 -5 23 14 7
25 -35 25 -35 0 -45 -4 -45 -16z"/>
<path d="M728 825 c3 -31 8 -45 19 -45 10 0 12 6 8 20 -8 26 2 25 24 -2 24
-29 41 -15 41 33 0 29 -4 39 -16 39 -10 0 -14 -6 -10 -15 3 -8 1 -15 -5 -15
-5 0 -12 7 -15 15 -4 8 -16 15 -28 15 -19 0 -21 -5 -18 -45z"/>
<path d="M963 828 c14 -48 33 -60 46 -27 l8 24 7 -23 c10 -31 32 -28 40 6 4
15 9 35 12 45 4 11 0 17 -10 17 -10 0 -16 -9 -17 -22 l0 -23 -10 23 c-11 29
-31 24 -40 -9 -7 -24 -7 -24 -8 4 -1 20 -6 27 -20 27 -18 0 -19 -3 -8 -42z"/>
<path d="M263 788 c-13 -67 -9 -78 33 -78 30 0 34 3 40 35 8 45 0 65 -27 65
-15 0 -19 5 -15 15 3 8 0 15 -7 15 -8 0 -18 -22 -24 -52z"/>
<path d="M960 737 c0 -30 -26 -93 -41 -103 -5 -2 -21 2 -36 9 -39 20 -214 21
-239 2 -11 -8 -24 -15 -29 -15 -15 0 -65 80 -65 103 0 11 -5 17 -12 14 -10 -3
-12 -28 -10 -91 3 -62 0 -86 -9 -86 -8 0 -9 -4 -1 -13 8 -10 8 -24 1 -52 -25
-90 18 -177 110 -222 47 -24 69 -28 137 -28 71 0 88 4 140 31 83 44 99 74 99
192 0 50 -4 92 -8 92 -5 0 -6 32 -3 73 7 65 5 76 -13 98 l-20 24 -1 -28z
m-360 -118 c0 -11 -41 -49 -49 -45 -4 3 -8 31 -8 62 l0 57 28 -34 c16 -19 29
-37 29 -40z m145 2 c0 -21 -7 -26 -50 -37 -27 -6 -72 -21 -100 -33 l-50 -21
50 2 c31 2 56 10 67 21 14 13 35 17 101 17 63 -1 78 -3 63 -11 -10 -6 -46 -9
-82 -7 -37 2 -60 0 -55 -5 15 -15 88 -20 123 -8 29 10 34 9 51 -11 l18 -23 -7
27 -6 28 43 -19 c43 -20 44 -21 47 -73 4 -55 -12 -128 -27 -128 -5 0 -13 21
-19 48 l-10 47 -1 -62 c-1 -59 -3 -63 -27 -69 -17 -4 -29 -2 -35 7 -7 11 -9
11 -9 -2 0 -16 -19 -29 -41 -29 -5 0 -10 12 -10 28 l-2 27 -4 -27 c-3 -22 -10
-28 -29 -28 -16 0 -24 6 -24 17 0 15 -1 15 -13 -1 -12 -16 -15 -16 -67 1 -52
17 -55 20 -52 49 1 16 -2 41 -7 55 -8 19 -9 16 -4 -18 3 -25 1 -43 -4 -43 -19
0 -43 71 -43 126 0 54 2 58 53 109 65 65 83 76 127 72 30 -2 35 -6 35 -26z
m105 19 c0 -5 6 -7 14 -4 8 3 17 0 22 -7 5 -8 3 -10 -7 -4 -8 5 -10 4 -6 0 4
-5 15 -10 23 -11 9 -1 22 -12 30 -23 8 -11 22 -28 31 -37 16 -16 16 -16 -7 -9
-14 4 -38 15 -55 23 -16 9 -37 15 -47 14 -9 -2 -19 1 -22 7 -3 5 -14 7 -25 4
-20 -5 -34 18 -25 42 7 17 74 22 74 5z m100 -26 c0 -22 -2 -24 -14 -14 -8 6
-12 18 -9 26 9 23 23 16 23 -12z"/>
<path d="M592 450 c0 -19 2 -27 5 -17 2 9 2 25 0 35 -3 9 -5 1 -5 -18z"/>
<path d="M805 455 c7 -32 44 -99 52 -92 2 3 -10 31 -27 63 -22 41 -29 50 -25
29z"/>
<path d="M721 429 c0 -13 4 -33 9 -44 7 -14 8 -8 3 20 -7 46 -13 59 -12 24z"/>
<path d="M631 385 c1 -19 18 -51 18 -35 0 8 -4 22 -9 30 -5 8 -9 11 -9 5z"/>
<path d="M1122 673 c3 -15 16 -19 66 -21 57 -3 62 -1 62 18 0 18 -6 20 -66 20
-57 0 -65 -2 -62 -17z"/>
<path d="M386 225 c4 -8 8 -15 10 -15 2 0 4 7 4 15 0 8 -4 15 -10 15 -5 0 -7
-7 -4 -15z"/>
<path d="M1087 227 c-3 -8 1 -14 8 -14 7 0 11 6 8 14 -6 16 -10 16 -16 0z"/>
<path d="M986 222 c-3 -5 1 -9 9 -9 8 0 12 4 9 9 -3 4 -7 8 -9 8 -2 0 -6 -4
-9 -8z"/>
<path d="M1030 225 c0 -2 7 -8 15 -15 12 -10 15 -10 15 2 0 8 -7 15 -15 15 -8
0 -15 -1 -15 -2z"/>
<path d="M606 207 c3 -10 9 -15 12 -12 3 3 0 11 -7 18 -10 9 -11 8 -5 -6z"/>
<path d="M951 204 c0 -11 3 -14 6 -6 3 7 2 16 -1 19 -3 4 -6 -2 -5 -13z"/>
<path d="M640 195 c0 -6 6 -12 13 -12 8 0 14 6 14 12 0 6 -6 12 -14 12 -7 0
-13 -6 -13 -12z"/>
<path d="M741 194 c0 -11 3 -14 6 -6 3 7 2 16 -1 19 -3 4 -6 -2 -5 -13z"/>
<path d="M860 200 c0 -5 5 -10 11 -10 5 0 7 5 4 10 -3 6 -8 10 -11 10 -2 0 -4
-4 -4 -10z"/>
</g>
</svg>
